<mxfile host="Electron" agent="Mozilla/5.0 (Windows NT 10.0; Win64; x64) AppleWebKit/537.36 (KHTML, like Gecko) draw.io/24.7.17 Chrome/128.0.6613.36 Electron/32.0.1 Safari/537.36" version="24.7.17">
  <diagram name="Pagina-1" id="RkDMCI6ijvVZgGv-TO9a">
    <mxGraphModel dx="568" dy="329" grid="1" gridSize="10" guides="1" tooltips="1" connect="1" arrows="1" fold="1" page="1" pageScale="1" pageWidth="827" pageHeight="1169" math="1" shadow="0">
      <root>
        <mxCell id="0" />
        <mxCell id="1" parent="0" />
        <mxCell id="onopr34foEV3eMA7efkw-8" style="edgeStyle=orthogonalEdgeStyle;rounded=0;orthogonalLoop=1;jettySize=auto;html=1;entryX=0.5;entryY=0;entryDx=0;entryDy=0;" edge="1" parent="1" source="onopr34foEV3eMA7efkw-1" target="onopr34foEV3eMA7efkw-4">
          <mxGeometry relative="1" as="geometry" />
        </mxCell>
        <mxCell id="onopr34foEV3eMA7efkw-1" value="" style="ellipse;whiteSpace=wrap;html=1;aspect=fixed;fillColor=none;" vertex="1" parent="1">
          <mxGeometry x="360" y="360" width="40" height="40" as="geometry" />
        </mxCell>
        <mxCell id="onopr34foEV3eMA7efkw-14" style="edgeStyle=orthogonalEdgeStyle;rounded=0;orthogonalLoop=1;jettySize=auto;html=1;entryX=0.5;entryY=0;entryDx=0;entryDy=0;" edge="1" parent="1" source="onopr34foEV3eMA7efkw-2" target="onopr34foEV3eMA7efkw-7">
          <mxGeometry relative="1" as="geometry">
            <Array as="points">
              <mxPoint x="300" y="505" />
            </Array>
          </mxGeometry>
        </mxCell>
        <mxCell id="onopr34foEV3eMA7efkw-2" value="" style="ellipse;whiteSpace=wrap;html=1;aspect=fixed;fillColor=none;" vertex="1" parent="1">
          <mxGeometry x="280" y="440" width="40" height="40" as="geometry" />
        </mxCell>
        <mxCell id="onopr34foEV3eMA7efkw-12" style="edgeStyle=orthogonalEdgeStyle;rounded=0;orthogonalLoop=1;jettySize=auto;html=1;entryX=0.5;entryY=1;entryDx=0;entryDy=0;" edge="1" parent="1" source="onopr34foEV3eMA7efkw-3" target="onopr34foEV3eMA7efkw-6">
          <mxGeometry relative="1" as="geometry" />
        </mxCell>
        <mxCell id="onopr34foEV3eMA7efkw-16" style="edgeStyle=orthogonalEdgeStyle;rounded=0;orthogonalLoop=1;jettySize=auto;html=1;entryX=0.5;entryY=1;entryDx=0;entryDy=0;" edge="1" parent="1" source="onopr34foEV3eMA7efkw-3" target="onopr34foEV3eMA7efkw-5">
          <mxGeometry relative="1" as="geometry" />
        </mxCell>
        <mxCell id="onopr34foEV3eMA7efkw-3" value="" style="ellipse;whiteSpace=wrap;html=1;aspect=fixed;fillColor=none;" vertex="1" parent="1">
          <mxGeometry x="440" y="440" width="40" height="40" as="geometry" />
        </mxCell>
        <mxCell id="onopr34foEV3eMA7efkw-9" style="edgeStyle=orthogonalEdgeStyle;rounded=0;orthogonalLoop=1;jettySize=auto;html=1;entryX=0.5;entryY=0;entryDx=0;entryDy=0;" edge="1" parent="1" source="onopr34foEV3eMA7efkw-4" target="onopr34foEV3eMA7efkw-2">
          <mxGeometry relative="1" as="geometry" />
        </mxCell>
        <mxCell id="onopr34foEV3eMA7efkw-4" value="" style="rounded=0;whiteSpace=wrap;html=1;fillColor=#000000;" vertex="1" parent="1">
          <mxGeometry x="285" y="400" width="30" height="10" as="geometry" />
        </mxCell>
        <mxCell id="onopr34foEV3eMA7efkw-17" style="edgeStyle=orthogonalEdgeStyle;rounded=0;orthogonalLoop=1;jettySize=auto;html=1;entryX=1;entryY=0.5;entryDx=0;entryDy=0;" edge="1" parent="1" source="onopr34foEV3eMA7efkw-5" target="onopr34foEV3eMA7efkw-1">
          <mxGeometry relative="1" as="geometry">
            <Array as="points">
              <mxPoint x="460" y="380" />
            </Array>
          </mxGeometry>
        </mxCell>
        <mxCell id="onopr34foEV3eMA7efkw-37" style="edgeStyle=orthogonalEdgeStyle;rounded=0;orthogonalLoop=1;jettySize=auto;html=1;entryX=1;entryY=0.5;entryDx=0;entryDy=0;fillColor=#fad9d5;strokeColor=#ae4132;" edge="1" parent="1" source="onopr34foEV3eMA7efkw-5" target="onopr34foEV3eMA7efkw-34">
          <mxGeometry relative="1" as="geometry">
            <Array as="points">
              <mxPoint x="470" y="310" />
            </Array>
          </mxGeometry>
        </mxCell>
        <mxCell id="onopr34foEV3eMA7efkw-5" value="" style="rounded=0;whiteSpace=wrap;html=1;fillColor=#000000;" vertex="1" parent="1">
          <mxGeometry x="445" y="400" width="30" height="10" as="geometry" />
        </mxCell>
        <mxCell id="onopr34foEV3eMA7efkw-13" style="edgeStyle=orthogonalEdgeStyle;rounded=0;orthogonalLoop=1;jettySize=auto;html=1;entryX=1;entryY=0.5;entryDx=0;entryDy=0;" edge="1" parent="1" source="onopr34foEV3eMA7efkw-6" target="onopr34foEV3eMA7efkw-2">
          <mxGeometry relative="1" as="geometry" />
        </mxCell>
        <mxCell id="onopr34foEV3eMA7efkw-6" value="" style="rounded=0;whiteSpace=wrap;html=1;fillColor=#000000;rotation=-90;" vertex="1" parent="1">
          <mxGeometry x="365" y="455" width="30" height="10" as="geometry" />
        </mxCell>
        <mxCell id="onopr34foEV3eMA7efkw-15" style="edgeStyle=orthogonalEdgeStyle;rounded=0;orthogonalLoop=1;jettySize=auto;html=1;entryX=0.5;entryY=1;entryDx=0;entryDy=0;" edge="1" parent="1" source="onopr34foEV3eMA7efkw-7" target="onopr34foEV3eMA7efkw-3">
          <mxGeometry relative="1" as="geometry" />
        </mxCell>
        <mxCell id="onopr34foEV3eMA7efkw-7" value="" style="rounded=0;whiteSpace=wrap;html=1;fillColor=#000000;rotation=-90;" vertex="1" parent="1">
          <mxGeometry x="365" y="500" width="30" height="10" as="geometry" />
        </mxCell>
        <mxCell id="onopr34foEV3eMA7efkw-19" value="\(p_1\)" style="text;html=1;align=center;verticalAlign=middle;whiteSpace=wrap;rounded=0;" vertex="1" parent="1">
          <mxGeometry x="365" y="330" width="30" height="30" as="geometry" />
        </mxCell>
        <mxCell id="onopr34foEV3eMA7efkw-20" value="\(p_2\)" style="text;html=1;align=center;verticalAlign=middle;whiteSpace=wrap;rounded=0;" vertex="1" parent="1">
          <mxGeometry x="250" y="445" width="30" height="30" as="geometry" />
        </mxCell>
        <mxCell id="onopr34foEV3eMA7efkw-21" value="\(p_3\)" style="text;html=1;align=center;verticalAlign=middle;whiteSpace=wrap;rounded=0;" vertex="1" parent="1">
          <mxGeometry x="480" y="445" width="30" height="30" as="geometry" />
        </mxCell>
        <mxCell id="onopr34foEV3eMA7efkw-22" value="\(t_2\)" style="text;html=1;align=center;verticalAlign=middle;whiteSpace=wrap;rounded=0;" vertex="1" parent="1">
          <mxGeometry x="365" y="415" width="30" height="30" as="geometry" />
        </mxCell>
        <mxCell id="onopr34foEV3eMA7efkw-23" value="\(t_3\)" style="text;html=1;align=center;verticalAlign=middle;whiteSpace=wrap;rounded=0;" vertex="1" parent="1">
          <mxGeometry x="365" y="520" width="30" height="30" as="geometry" />
        </mxCell>
        <mxCell id="onopr34foEV3eMA7efkw-24" value="\(t_4\)" style="text;html=1;align=center;verticalAlign=middle;whiteSpace=wrap;rounded=0;" vertex="1" parent="1">
          <mxGeometry x="475" y="390" width="30" height="30" as="geometry" />
        </mxCell>
        <mxCell id="onopr34foEV3eMA7efkw-25" value="\(t_1\)" style="text;html=1;align=center;verticalAlign=middle;whiteSpace=wrap;rounded=0;" vertex="1" parent="1">
          <mxGeometry x="255" y="390" width="30" height="30" as="geometry" />
        </mxCell>
        <mxCell id="onopr34foEV3eMA7efkw-31" value="" style="ellipse;whiteSpace=wrap;html=1;aspect=fixed;fillColor=#000000;" vertex="1" parent="1">
          <mxGeometry x="295" y="455" width="10" height="10" as="geometry" />
        </mxCell>
        <mxCell id="onopr34foEV3eMA7efkw-32" value="" style="ellipse;whiteSpace=wrap;html=1;aspect=fixed;fillColor=#000000;" vertex="1" parent="1">
          <mxGeometry x="375" y="375" width="10" height="10" as="geometry" />
        </mxCell>
        <mxCell id="onopr34foEV3eMA7efkw-33" value="" style="ellipse;whiteSpace=wrap;html=1;aspect=fixed;fillColor=#000000;" vertex="1" parent="1">
          <mxGeometry x="455" y="455" width="10" height="10" as="geometry" />
        </mxCell>
        <mxCell id="onopr34foEV3eMA7efkw-38" style="edgeStyle=orthogonalEdgeStyle;rounded=0;orthogonalLoop=1;jettySize=auto;html=1;entryX=0.25;entryY=0;entryDx=0;entryDy=0;fillColor=#fad9d5;strokeColor=#ae4132;" edge="1" parent="1" source="onopr34foEV3eMA7efkw-34" target="onopr34foEV3eMA7efkw-4">
          <mxGeometry relative="1" as="geometry" />
        </mxCell>
        <mxCell id="onopr34foEV3eMA7efkw-34" value="" style="ellipse;whiteSpace=wrap;html=1;aspect=fixed;fillColor=none;strokeColor=#CC0000;" vertex="1" parent="1">
          <mxGeometry x="360" y="290" width="40" height="40" as="geometry" />
        </mxCell>
        <mxCell id="onopr34foEV3eMA7efkw-35" value="\(p_m\)" style="text;html=1;align=center;verticalAlign=middle;whiteSpace=wrap;rounded=0;fontColor=#CC0000;" vertex="1" parent="1">
          <mxGeometry x="365" y="260" width="30" height="30" as="geometry" />
        </mxCell>
      </root>
    </mxGraphModel>
  </diagram>
</mxfile>
